name rise30.2954peak35.7071fall66.7804.mot
datacolumns 19
datarows 26
range 8.28664300000000 8.32830200000000
endheader
time	ground_force1_vx	ground_force1_vy	ground_force1_vz	ground_force1_px	ground_force1_py	ground_force1_pz	ground_force2_vx	ground_force2_vy	ground_force2_vz	ground_force2_px	ground_force2_py	ground_force2_pz	ground_torque1_x	ground_torque1_y	ground_torque1_z	ground_torque2_x	ground_torque2_y	ground_torque2_z	
8.28664300000000	-6.56418300000000	45.83121700000000	-12.30823800000000	0.33048900000000	0.00000000000000	0.09774100000000	-50.09231000000000	807.48579700000005	-56.43732800000000	0.12949900000000	0.00000000000000	-0.09595100000000	0.00000000000000	-8.46384200000000	0.00000000000000	0.00000000000000	-22.54606200000000	0.00000000000000	
8.28830800000000	-7.05142900000000	52.45202900000000	-13.56196100000000	0.33472000000000	0.00000000000000	0.09862900000000	-50.46574800000000	804.81945299999995	-56.06471700000000	0.12898900000000	0.00000000000000	-0.09579200000000	0.00000000000000	-9.40134300000000	0.00000000000000	0.00000000000000	-22.43767900000000	0.00000000000000	
8.28997600000000	-7.41178900000000	59.02269000000000	-14.66596400000000	0.33853900000000	0.00000000000000	0.09945800000000	-50.86584100000000	802.05078000000003	-55.67362600000000	0.12847800000000	0.00000000000000	-0.09562900000000	0.00000000000000	-10.24625600000000	0.00000000000000	0.00000000000000	-22.33299800000000	0.00000000000000	
8.29163600000000	-7.63449500000000	65.47745100000000	-15.60094500000000	0.34200700000000	0.00000000000000	0.10023500000000	-51.29295600000000	799.17796599999997	-55.26410300000000	0.12796600000000	0.00000000000000	-0.09546100000000	0.00000000000000	-10.98373500000000	0.00000000000000	0.00000000000000	-22.23214700000000	0.00000000000000	
8.29330900000000	-7.71511300000000	71.77528100000001	-16.35737500000000	0.34517200000000	0.00000000000000	0.10096700000000	-51.74733300000000	796.19902900000000	-54.83621100000000	0.12745200000000	0.00000000000000	-0.09529000000000	0.00000000000000	-11.60578600000000	0.00000000000000	0.00000000000000	-22.13522800000000	0.00000000000000	
8.29497500000000	-7.65499300000000	77.89940300000001	-16.93481700000000	0.34807500000000	0.00000000000000	0.10165800000000	-52.22907800000000	793.11182399999996	-54.39002600000000	0.12693700000000	0.00000000000000	-0.09511400000000	0.00000000000000	-12.11089100000000	0.00000000000000	0.00000000000000	-22.04231900000000	0.00000000000000	
8.29663800000000	-7.46033900000000	83.85492100000000	-17.34061400000000	0.35075000000000	0.00000000000000	0.10231500000000	-52.73816000000000	789.91404999999997	-53.92563800000000	0.12642000000000	0.00000000000000	-0.09493500000000	0.00000000000000	-12.50315300000000	0.00000000000000	0.00000000000000	-21.95346700000000	0.00000000000000	
8.29830900000000	-7.14104700000000	89.66504800000000	-17.58817200000000	0.35322600000000	0.00000000000000	0.10293900000000	-53.27440700000000	786.60325399999999	-53.44315000000000	0.12590200000000	0.00000000000000	-0.09475200000000	0.00000000000000	-12.79113800000000	0.00000000000000	0.00000000000000	-21.86869300000000	0.00000000000000	
8.29997500000000	-6.70945000000000	95.36650899999999	-17.69503700000000	0.35552700000000	0.00000000000000	0.10353500000000	-53.83750200000000	783.17684399999996	-52.94268000000000	0.12538200000000	0.00000000000000	-0.09456500000000	0.00000000000000	-12.98654000000000	0.00000000000000	0.00000000000000	-21.78798900000000	0.00000000000000	
8.30164100000000	-6.17907500000000	101.00462700000000	-17.68097100000000	0.35767300000000	0.00000000000000	0.10410500000000	-54.42697700000000	779.63209400000005	-52.42436000000000	0.12486000000000	0.00000000000000	-0.09437500000000	0.00000000000000	-13.10282200000000	0.00000000000000	0.00000000000000	-21.71131600000000	0.00000000000000	
8.30330300000000	-5.56353300000000	106.62856300000000	-17.56618400000000	0.35968100000000	0.00000000000000	0.10465200000000	-55.04221500000000	775.96615899999995	-51.88833600000000	0.12433700000000	0.00000000000000	-0.09418100000000	0.00000000000000	-13.15395200000000	0.00000000000000	0.00000000000000	-21.63860700000000	0.00000000000000	
8.30497700000000	-4.87558600000000	112.28704700000000	-17.36983000000000	0.36156600000000	0.00000000000000	0.10517800000000	-55.68244400000000	772.17608600000005	-51.33477100000000	0.12381200000000	0.00000000000000	-0.09398300000000	0.00000000000000	-13.15331500000000	0.00000000000000	0.00000000000000	-21.56976500000000	0.00000000000000	
8.30664200000000	-4.12645000000000	118.02486800000000	-17.10884400000000	0.36334200000000	0.00000000000000	0.10568400000000	-56.34674000000000	768.25882600000000	-50.76384200000000	0.12328500000000	0.00000000000000	-0.09378200000000	0.00000000000000	-13.11285200000000	0.00000000000000	0.00000000000000	-21.50466200000000	0.00000000000000	
8.30831000000000	-3.32533900000000	123.88024200000000	-16.79715400000000	0.36501800000000	0.00000000000000	0.10617200000000	-57.03402000000000	764.21125099999995	-50.17574200000000	0.12275700000000	0.00000000000000	-0.09357800000000	0.00000000000000	-13.04246500000000	0.00000000000000	0.00000000000000	-21.44314000000000	0.00000000000000	
8.30996900000000	-2.47924200000000	129.88312600000000	-16.44525000000000	0.36660500000000	0.00000000000000	0.10664300000000	-57.74304800000000	760.03017000000000	-49.57068200000000	0.12222800000000	0.00000000000000	-0.09337100000000	0.00000000000000	-12.94968000000000	0.00000000000000	0.00000000000000	-21.38501200000000	0.00000000000000	
8.31165600000000	-1.59291500000000	136.05441099999999	-16.06010000000000	0.36811000000000	0.00000000000000	0.10709900000000	-58.47243100000000	755.71234200000004	-48.94889000000000	0.12169800000000	0.00000000000000	-0.09316000000000	0.00000000000000	-12.83954900000000	0.00000000000000	0.00000000000000	-21.33005900000000	0.00000000000000	
8.31330300000000	-0.66903900000000	142.40592300000000	-15.64533500000000	0.36954000000000	0.00000000000000	0.10754000000000	-59.22062400000000	751.25450000000001	-48.31061100000000	0.12116600000000	0.00000000000000	-0.09294600000000	0.00000000000000	-12.71475400000000	0.00000000000000	0.00000000000000	-21.27803700000000	0.00000000000000	
8.31497000000000	0.29148200000000	148.94106099999999	-15.20165600000000	0.37090100000000	0.00000000000000	0.10796700000000	-59.98593000000000	746.65336600000001	-47.65611000000000	0.12063400000000	0.00000000000000	-0.09273000000000	0.00000000000000	-12.57587400000000	0.00000000000000	0.00000000000000	-21.22866800000000	0.00000000000000	
8.31664100000000	1.28915200000000	155.65591599999999	-14.72738000000000	0.37219800000000	0.00000000000000	0.10838200000000	-60.76650300000000	741.90567499999997	-46.98566900000000	0.12010100000000	0.00000000000000	-0.09251000000000	0.00000000000000	-12.42175700000000	0.00000000000000	0.00000000000000	-21.18165000000000	0.00000000000000	
8.31830100000000	2.32546400000000	162.54070500000000	-14.21907600000000	0.37343600000000	0.00000000000000	0.10878400000000	-61.56035200000000	737.00819400000000	-46.29959200000000	0.11956700000000	0.00000000000000	-0.09228700000000	0.00000000000000	-12.24996000000000	0.00000000000000	0.00000000000000	-21.13665200000000	0.00000000000000	
8.31997000000000	3.40248100000000	169.58134300000000	-13.67220600000000	0.37461800000000	0.00000000000000	0.10917400000000	-62.36534500000000	731.95774600000004	-45.59820200000000	0.11903400000000	0.00000000000000	-0.09206200000000	0.00000000000000	-12.05720200000000	0.00000000000000	0.00000000000000	-21.09331900000000	0.00000000000000	
8.32163600000000	4.52244900000000	176.76101900000000	-13.08173600000000	0.37574700000000	0.00000000000000	0.10955300000000	-63.17921500000000	726.75123499999995	-44.88184300000000	0.11850000000000	0.00000000000000	-0.09183400000000	0.00000000000000	-11.83979500000000	0.00000000000000	0.00000000000000	-21.05126800000000	0.00000000000000	
8.32330200000000	5.68746300000000	184.06165799999999	-12.44268000000000	0.37682600000000	0.00000000000000	0.10992200000000	-63.99956400000000	721.38566800000001	-44.15088000000000	0.11796600000000	0.00000000000000	-0.09160300000000	0.00000000000000	-11.59403900000000	0.00000000000000	0.00000000000000	-21.01009500000000	0.00000000000000	
8.32496900000000	6.89919500000000	191.46518300000000	-11.75053700000000	0.37785600000000	0.00000000000000	0.11028000000000	-64.82387199999999	715.85817999999995	-43.40569800000000	0.11743200000000	0.00000000000000	-0.09137000000000	0.00000000000000	-11.31653300000000	0.00000000000000	0.00000000000000	-20.96937200000000	0.00000000000000	
8.32663500000000	8.15870500000000	198.95452000000000	-11.00162300000000	0.37884000000000	0.00000000000000	0.11062800000000	-65.64950100000000	710.16606000000002	-42.64670800000000	0.11689900000000	0.00000000000000	-0.09113400000000	0.00000000000000	-11.00442500000000	0.00000000000000	0.00000000000000	-20.92865100000000	0.00000000000000	
8.32830200000000	9.46631800000000	206.51433700000001	-10.19328500000000	0.37977900000000	0.00000000000000	0.11096700000000	-66.47370500000000	704.30677300000002	-41.87433800000000	0.11636600000000	0.00000000000000	-0.09089600000000	0.00000000000000	-10.65556600000000	0.00000000000000	0.00000000000000	-20.88746400000000	0.00000000000000	
